<svg xmlns="http://www.w3.org/2000/svg" width="62.617" height="57" viewBox="0 0 62.617 57">
  <g id="Color_logo_-_no_background" data-name="Color logo - no background" transform="translate(0 -6.333)">
    <g id="SvgjsG21396" transform="translate(0 6.333)">
      <g id="Group_12" data-name="Group 12">
        <path id="Path_5" data-name="Path 5" d="M32.941,106.714C33.3,87.928,52.974,74.281,74.694,72.46c5.289-.442,14.237-.566,20.859,1.508l-6.266,11.56a51.994,51.994,0,0,0-14.686-1.2c-22.155.767-36.1,13.766-36.408,26.909a19.52,19.52,0,0,0,9.9,17.588l-.437.373C37.942,124.361,32.744,116.758,32.941,106.714Z" transform="translate(-32.936 -72.194)" fill="#fff"/>
        <path id="Path_6" data-name="Path 6" d="M175.383,382.98c2.2-10.97,14.415-19.35,33.615-18.348a53.551,53.551,0,0,1,8.372.991l-5.55,10.234c-1.727-.237-4.424-.718-6.739-.842-15.126-.791-24.433,5.467-25.977,13.447a11.954,11.954,0,0,0,5.312,12.084l-.44.338C176.468,396.729,174.036,389.686,175.383,382.98Z" transform="translate(-165.066 -344.049)" fill="#fff"/>
        <path id="Path_7" data-name="Path 7" d="M295.348,616.86c3.675-6.179,14.749-8.18,24.636-5.779l-2.9,5.313c-7.86-1.808-16.959-.58-19.567,3.951-1.418,2.466-.627,5.854.974,8.246l-.294.3C294.5,625.58,293.157,620.546,295.348,616.86Z" transform="translate(-275.964 -572.375)" fill="#fff"/>
      </g>
    </g>
  </g>
</svg>
