<svg id="two_wheeler_black_24dp" xmlns="http://www.w3.org/2000/svg" width="24" height="24" viewBox="0 0 24 24">
  <rect id="Rectangle_428" data-name="Rectangle 428" width="24" height="24" fill="none"/>
  <path id="Path_204" data-name="Path 204" d="M4.17,11h0m9.24-6H9V7h3.59l2,2H11L7,11,5,9H0v2H4a4,4,0,1,0,4,4l2,2h3l3.49-6.1,1.01,1.01A3.956,3.956,0,0,0,16,15a4,4,0,1,0,4-4,4.534,4.534,0,0,0-.53.05L17.41,9H20V6L16.28,7.86,13.41,5ZM20,17a2,2,0,1,1,2-2,2.006,2.006,0,0,1-2,2ZM4,17a2,2,0,1,1,2-2,2.006,2.006,0,0,1-2,2Z" fill="#42b546"/>
</svg>
